<svg width="150" height="57" viewBox="0 0 150 57" fill="none" xmlns="http://www.w3.org/2000/svg">
<mask id="mask0_9235_3165" style="mask-type:alpha" maskUnits="userSpaceOnUse" x="2" y="22" width="142" height="23">
<path d="M81.5029 34.9885L75.2819 38.5981L75.2819 31.379L81.5029 34.9885Z" fill="white"/>
<path d="M90.0953 43.7828C89.6384 43.6686 89.2578 43.4211 88.9532 43.0404C88.6677 42.6407 88.5249 42.1934 88.5249 41.6985V41.413C88.5249 41.0323 88.6772 40.7278 88.9818 40.4994C89.3053 40.271 89.648 40.2139 90.0096 40.3281C91.4372 40.7659 92.6649 40.9847 93.6927 40.9847C96.7192 40.9847 98.2324 39.6143 98.2324 36.8733C98.2324 34.6083 97.1379 33.4757 94.949 33.4757C94.378 33.4757 93.8355 33.5804 93.3216 33.7898C91.9321 34.3608 90.9518 34.6463 90.3808 34.6463H90.1809C89.7431 34.6463 89.372 34.4846 89.0674 34.161C88.7629 33.8374 88.6201 33.4567 88.6391 33.0189L89.0674 24.7105C89.1055 24.2536 89.2768 23.873 89.5813 23.5684C89.9049 23.2448 90.2951 23.083 90.7519 23.083H99.66C100.098 23.083 100.469 23.2448 100.773 23.5684C101.097 23.892 101.259 24.2727 101.259 24.7105C101.259 25.1483 101.097 25.5289 100.773 25.8525C100.469 26.1571 100.098 26.3093 99.66 26.3093H93.0075C92.8362 26.3093 92.7505 26.395 92.7505 26.5663L92.5221 31.106C92.5221 31.125 92.5316 31.1345 92.5507 31.1345H92.5792L92.6078 31.106C93.5595 30.6491 94.5873 30.4207 95.6913 30.4207C97.747 30.4207 99.3364 30.9822 100.459 32.1053C101.601 33.2283 102.172 34.8176 102.172 36.8733C102.172 41.7651 99.384 44.2111 93.8069 44.2111C92.5316 44.2111 91.2944 44.0683 90.0953 43.7828ZM106.074 43.9255C105.636 43.9255 105.256 43.7637 104.932 43.4402C104.608 43.1166 104.447 42.7359 104.447 42.2981V40.6992C104.447 40.2614 104.608 39.8808 104.932 39.5572C105.256 39.2336 105.636 39.0718 106.074 39.0718H107.387C107.825 39.0718 108.206 39.2336 108.529 39.5572C108.853 39.8808 109.015 40.2614 109.015 40.6992V42.2981C109.015 42.7359 108.853 43.1166 108.529 43.4402C108.206 43.7637 107.825 43.9255 107.387 43.9255H106.074ZM121.374 27.6227C120.727 26.4806 119.737 25.9096 118.405 25.9096C117.073 25.9096 116.083 26.4806 115.436 27.6227C114.789 28.7648 114.465 30.7253 114.465 33.5043C114.465 36.2833 114.789 38.2438 115.436 39.3859C116.083 40.5279 117.073 41.099 118.405 41.099C119.737 41.099 120.727 40.5279 121.374 39.3859C122.022 38.2438 122.345 36.2833 122.345 33.5043C122.345 30.7253 122.022 28.7648 121.374 27.6227ZM124.401 41.67C123.087 43.364 121.089 44.2111 118.405 44.2111C115.721 44.2111 113.713 43.364 112.381 41.67C111.067 39.9759 110.411 37.254 110.411 33.5043C110.411 29.7545 111.067 27.0326 112.381 25.3386C113.713 23.6445 115.721 22.7975 118.405 22.7975C121.089 22.7975 123.087 23.6445 124.401 25.3386C125.733 27.0326 126.399 29.7545 126.399 33.5043C126.399 37.254 125.733 39.9759 124.401 41.67ZM131.7 43.7828C131.243 43.6686 130.862 43.4211 130.558 43.0404C130.272 42.6407 130.13 42.1934 130.13 41.6985V41.413C130.13 41.0323 130.282 40.7278 130.586 40.4994C130.91 40.271 131.253 40.2139 131.614 40.3281C133.042 40.7659 134.27 40.9847 135.297 40.9847C138.324 40.9847 139.837 39.6143 139.837 36.8733C139.837 34.6083 138.743 33.4757 136.554 33.4757C135.983 33.4757 135.44 33.5804 134.926 33.7898C133.537 34.3608 132.557 34.6463 131.985 34.6463H131.786C131.348 34.6463 130.977 34.4846 130.672 34.161C130.368 33.8374 130.225 33.4567 130.244 33.0189L130.672 24.7105C130.71 24.2536 130.881 23.873 131.186 23.5684C131.51 23.2448 131.9 23.083 132.357 23.083H141.265C141.702 23.083 142.074 23.2448 142.378 23.5684C142.702 23.892 142.864 24.2727 142.864 24.7105C142.864 25.1483 142.702 25.5289 142.378 25.8525C142.074 26.1571 141.702 26.3093 141.265 26.3093H134.612C134.441 26.3093 134.355 26.395 134.355 26.5663L134.127 31.106C134.127 31.125 134.136 31.1345 134.155 31.1345H134.184L134.212 31.106C135.164 30.6491 136.192 30.4207 137.296 30.4207C139.352 30.4207 140.941 30.9822 142.064 32.1053C143.206 33.2283 143.777 34.8176 143.777 36.8733C143.777 41.7651 140.989 44.2111 135.412 44.2111C134.136 44.2111 132.899 44.0683 131.7 43.7828Z" fill="white"/>
<path d="M4.1685 43.7828C3.71168 43.6686 3.33099 43.4211 3.02645 43.0404C2.74093 42.6407 2.59817 42.1934 2.59817 41.6985V41.413C2.59817 41.0323 2.75045 40.7278 3.055 40.4994C3.37858 40.271 3.7212 40.2139 4.08285 40.3281C5.51041 40.7659 6.73812 40.9847 7.76597 40.9847C10.7924 40.9847 12.3056 39.6143 12.3056 36.8733C12.3056 34.6083 11.2112 33.4757 9.02223 33.4757C8.45121 33.4757 7.90873 33.5804 7.39481 33.7898C6.00531 34.3608 5.02504 34.6463 4.45401 34.6463H4.25415C3.81637 34.6463 3.4452 34.4846 3.14065 34.161C2.8361 33.8374 2.69335 33.4567 2.71238 33.0189L3.14065 24.7105C3.17872 24.2536 3.35003 23.873 3.65458 23.5684C3.97816 23.2448 4.36836 23.083 4.82518 23.083H13.7332C14.171 23.083 14.5422 23.2448 14.8467 23.5684C15.1703 23.892 15.3321 24.2727 15.3321 24.7105C15.3321 25.1483 15.1703 25.5289 14.8467 25.8525C14.5422 26.1571 14.171 26.3093 13.7332 26.3093H7.08074C6.90943 26.3093 6.82378 26.395 6.82378 26.5663L6.59537 31.106C6.59537 31.125 6.60488 31.1345 6.62392 31.1345H6.65247L6.68102 31.106C7.63273 30.6491 8.66058 30.4207 9.76457 30.4207C11.8203 30.4207 13.4096 30.9822 14.5326 32.1053C15.6747 33.2283 16.2457 34.8176 16.2457 36.8733C16.2457 41.7651 13.4572 44.2111 7.88018 44.2111C6.60488 44.2111 5.36766 44.0683 4.1685 43.7828ZM20.1472 43.9255C19.7094 43.9255 19.3288 43.7637 19.0052 43.4402C18.6816 43.1166 18.5198 42.7359 18.5198 42.2981V40.6992C18.5198 40.2614 18.6816 39.8808 19.0052 39.5572C19.3288 39.2336 19.7094 39.0718 20.1472 39.0718H21.4606C21.8984 39.0718 22.2791 39.2336 22.6026 39.5572C22.9262 39.8808 23.088 40.2614 23.088 40.6992V42.2981C23.088 42.7359 22.9262 43.1166 22.6026 43.4402C22.2791 43.7637 21.8984 43.9255 21.4606 43.9255H20.1472ZM35.4476 27.6227C34.8005 26.4806 33.8107 25.9096 32.4783 25.9096C31.1459 25.9096 30.1561 26.4806 29.509 27.6227C28.8618 28.7648 28.5382 30.7253 28.5382 33.5043C28.5382 36.2833 28.8618 38.2438 29.509 39.3859C30.1561 40.5279 31.1459 41.099 32.4783 41.099C33.8107 41.099 34.8005 40.5279 35.4476 39.3859C36.0948 38.2438 36.4184 36.2833 36.4184 33.5043C36.4184 30.7253 36.0948 28.7648 35.4476 27.6227ZM38.4741 41.67C37.1607 43.364 35.1621 44.2111 32.4783 44.2111C29.7945 44.2111 27.7864 43.364 26.454 41.67C25.1406 39.9759 24.4839 37.254 24.4839 33.5043C24.4839 29.7545 25.1406 27.0326 26.454 25.3386C27.7864 23.6445 29.7945 22.7975 32.4783 22.7975C35.1621 22.7975 37.1607 23.6445 38.4741 25.3386C39.8065 27.0326 40.4727 29.7545 40.4727 33.5043C40.4727 37.254 39.8065 39.9759 38.4741 41.67ZM47.7147 36.4165C47.7147 36.4356 47.7052 36.4451 47.6861 36.4451C47.6861 36.4451 47.6861 36.4546 47.6861 36.4736C47.6861 36.4927 47.6957 36.5022 47.7147 36.5022H53.168C53.3203 36.5022 53.3964 36.4165 53.3964 36.2452V28.3365C53.3964 28.3175 53.3869 28.3079 53.3679 28.3079H53.3393L47.7147 36.4165ZM45.5448 39.6428C45.126 39.6428 44.7549 39.4906 44.4313 39.186C44.1267 38.8815 43.9745 38.5103 43.9745 38.0725C43.9745 37.0066 44.279 36.0549 44.8881 35.2174L52.4828 24.3964C53.0919 23.5208 53.9389 23.083 55.0238 23.083H55.652C56.0898 23.083 56.4704 23.2448 56.794 23.5684C57.1176 23.892 57.2794 24.2727 57.2794 24.7105V36.2452C57.2794 36.4165 57.3555 36.5022 57.5078 36.5022H58.8783C59.3161 36.5022 59.6872 36.6545 59.9918 36.959C60.2963 37.2636 60.4486 37.6347 60.4486 38.0725C60.4486 38.5103 60.2963 38.8815 59.9918 39.186C59.6872 39.4906 59.3161 39.6428 58.8783 39.6428H57.5078C57.3555 39.6428 57.2794 39.7285 57.2794 39.8998V42.2981C57.2794 42.7359 57.1176 43.1166 56.794 43.4402C56.4704 43.7637 56.0898 43.9255 55.652 43.9255H55.0238C54.5861 43.9255 54.2054 43.7637 53.8818 43.4402C53.5582 43.1166 53.3964 42.7359 53.3964 42.2981V39.8998C53.3964 39.7285 53.3203 39.6428 53.168 39.6428H45.5448Z" fill="white"/>
</mask>
<g mask="url(#mask0_9235_3165)">
<rect y="18.8164" width="150.429" height="32.2414" fill="#9FB918"/>
</g>
<path d="M16.8629 15.8207C18.5079 15.1738 19.871 14.4669 20.9523 13.6998C20.9707 13.6906 20.9754 13.6767 20.9661 13.6582C20.9569 13.6397 20.943 13.6305 20.9245 13.6305H19.1779H18.2352C18.0227 13.6305 17.8378 13.5566 17.6807 13.4087C17.5236 13.2516 17.4451 13.0668 17.4451 12.8542V9.05594C17.4451 8.84338 17.5236 8.66317 17.6807 8.51531C17.8378 8.3582 18.0227 8.27965 18.2352 8.27965H21.6454C21.7285 8.27965 21.7701 8.23806 21.7701 8.15489V7.69743C21.7701 7.6235 21.7285 7.58653 21.6454 7.58653H17.1401C16.9368 7.58653 16.7658 7.51722 16.6272 7.3786C16.4978 7.23997 16.4331 7.069 16.4331 6.86569C16.4331 6.66238 16.4978 6.49141 16.6272 6.35279C16.7658 6.21416 16.9368 6.14485 17.1401 6.14485H21.6454C21.7285 6.14485 21.7701 6.10788 21.7701 6.03395V5.8676C21.7701 5.65505 21.8441 5.47484 21.9919 5.32697C22.149 5.16987 22.3339 5.09132 22.5464 5.09132H22.8791C23.0917 5.09132 23.2719 5.16987 23.4197 5.32697C23.5768 5.47484 23.6554 5.65505 23.6554 5.8676V6.03395C23.6554 6.10788 23.697 6.14485 23.7802 6.14485H28.2854C28.4887 6.14485 28.6551 6.21416 28.7845 6.35279C28.9231 6.49141 28.9924 6.66238 28.9924 6.86569C28.9924 7.069 28.9231 7.23997 28.7845 7.3786C28.6551 7.51722 28.4887 7.58653 28.2854 7.58653H23.7802C23.697 7.58653 23.6554 7.6235 23.6554 7.69743V8.15489C23.6554 8.23806 23.697 8.27965 23.7802 8.27965H27.1903C27.4028 8.27965 27.5877 8.3582 27.7448 8.51531C27.9019 8.66317 27.9804 8.84338 27.9804 9.05594V12.8542C27.9804 13.0668 27.9019 13.2516 27.7448 13.4087C27.5877 13.5566 27.4028 13.6305 27.1903 13.6305H24.501C24.4825 13.6305 24.4687 13.6444 24.4594 13.6721C24.4594 13.6906 24.4687 13.7044 24.4871 13.7137C25.5592 14.4715 26.9177 15.1738 28.5627 15.8207C28.7567 15.8947 28.8907 16.0333 28.9647 16.2366C29.0478 16.4307 29.0432 16.6201 28.9508 16.805L28.8954 16.9159C28.7937 17.1192 28.6412 17.2578 28.4379 17.3317C28.2346 17.4149 28.0313 17.4103 27.828 17.3179C26.1922 16.597 24.8337 15.8069 23.7524 14.9474C23.6877 14.9012 23.6554 14.9151 23.6554 14.989V17.0129C23.6554 17.2255 23.5768 17.4057 23.4197 17.5535C23.2719 17.7106 23.0917 17.7892 22.8791 17.7892H22.5464C22.3339 17.7892 22.149 17.7106 21.9919 17.5535C21.8441 17.4057 21.7701 17.2255 21.7701 17.0129V14.989C21.7701 14.9705 21.7609 14.9567 21.7424 14.9474C21.7332 14.9382 21.7193 14.9382 21.7008 14.9474C21.6916 14.9474 21.6777 14.952 21.6592 14.9613C20.578 15.8207 19.2195 16.6063 17.5837 17.3179C17.3804 17.4103 17.1771 17.4149 16.9738 17.3317C16.7797 17.2578 16.6318 17.1192 16.5302 16.9159L16.4747 16.805C16.3823 16.6201 16.3731 16.4307 16.447 16.2366C16.5302 16.0333 16.6688 15.8947 16.8629 15.8207ZM23.6554 9.6936V10.262C23.6554 10.3359 23.697 10.3729 23.7802 10.3729H26.1229C26.2061 10.3729 26.2477 10.3359 26.2477 10.262V9.6936C26.2477 9.61043 26.2061 9.56884 26.1229 9.56884H23.7802C23.697 9.56884 23.6554 9.61043 23.6554 9.6936ZM23.6554 11.6482V12.272C23.6554 12.3459 23.697 12.3829 23.7802 12.3829H26.1229C26.2061 12.3829 26.2477 12.3459 26.2477 12.272V11.6482C26.2477 11.5743 26.2061 11.5373 26.1229 11.5373H23.7802C23.697 11.5373 23.6554 11.5743 23.6554 11.6482ZM19.1779 9.6936V10.262C19.1779 10.3359 19.2195 10.3729 19.3026 10.3729H21.6454C21.7285 10.3729 21.7701 10.3359 21.7701 10.262V9.6936C21.7701 9.61043 21.7285 9.56884 21.6454 9.56884H19.3026C19.2195 9.56884 19.1779 9.61043 19.1779 9.6936ZM19.3026 12.3829H21.6454C21.7285 12.3829 21.7701 12.3459 21.7701 12.272V11.6482C21.7701 11.5743 21.7285 11.5373 21.6454 11.5373H19.3026C19.2195 11.5373 19.1779 11.5743 19.1779 11.6482V12.272C19.1779 12.3459 19.2195 12.3829 19.3026 12.3829ZM33.9828 13.6721C34.1492 13.82 34.2416 14.0048 34.2601 14.2266C34.2878 14.4391 34.2277 14.6286 34.0799 14.7949C33.396 15.5897 32.6105 16.3198 31.7233 16.9852C31.5384 17.1146 31.3397 17.1608 31.1272 17.1238C30.9146 17.0961 30.739 16.999 30.6004 16.8327L30.5311 16.7634C30.3925 16.6063 30.337 16.4214 30.3648 16.2089C30.4017 15.9963 30.5034 15.8254 30.6697 15.696C31.483 15.0768 32.2038 14.4207 32.8323 13.7275C32.9801 13.5704 33.1603 13.4826 33.3729 13.4642C33.5854 13.4364 33.7749 13.4919 33.9412 13.6305L33.9828 13.6721ZM38.9178 14.892C38.7515 14.7626 38.659 14.5916 38.6406 14.3791C38.6221 14.1665 38.6822 13.9817 38.8208 13.8246L38.9039 13.7275C39.0518 13.5612 39.232 13.4688 39.4446 13.4503C39.6664 13.4226 39.8651 13.478 40.0407 13.6166C40.8724 14.282 41.6579 14.9844 42.3973 15.7237C42.5451 15.8808 42.619 16.0703 42.619 16.2921C42.619 16.5046 42.5405 16.6895 42.3834 16.8466L42.3002 16.9297C42.1523 17.0868 41.9721 17.1654 41.7596 17.1654C41.547 17.1654 41.3622 17.0868 41.2051 16.9297C40.4843 16.2089 39.7218 15.5296 38.9178 14.892ZM30.9331 7.62812C30.7298 7.62812 30.5542 7.55881 30.4063 7.42018C30.2677 7.27232 30.1984 7.09673 30.1984 6.89342C30.1984 6.6901 30.2677 6.51451 30.4063 6.36665C30.5542 6.21878 30.7298 6.14485 30.9331 6.14485H35.4106C35.4938 6.14485 35.5354 6.10788 35.5354 6.03395V5.8676C35.5354 5.65505 35.6093 5.47484 35.7572 5.32697C35.9143 5.16987 36.0991 5.09132 36.3117 5.09132H36.6444C36.8569 5.09132 37.0372 5.16987 37.185 5.32697C37.3421 5.47484 37.4207 5.65505 37.4207 5.8676V6.03395C37.4207 6.10788 37.4623 6.14485 37.5454 6.14485H42.023C42.2263 6.14485 42.3973 6.21878 42.5359 6.36665C42.6837 6.51451 42.7577 6.6901 42.7577 6.89342C42.7577 7.09673 42.6837 7.27232 42.5359 7.42018C42.3973 7.55881 42.2263 7.62812 42.023 7.62812H30.9331ZM34.2046 17.6644C33.9828 17.6552 33.7934 17.572 33.6363 17.4149C33.4884 17.2578 33.4052 17.0684 33.3867 16.8466C33.3775 16.6432 33.4422 16.4677 33.5808 16.3198C33.7287 16.1627 33.9089 16.0888 34.1214 16.098C34.4172 16.1165 34.7314 16.1257 35.0641 16.1257C35.3598 16.1257 35.5354 16.098 35.5909 16.0425C35.6463 15.9871 35.674 15.8023 35.674 15.4881V13.0899C35.674 13.0067 35.6324 12.9651 35.5493 12.9651H33.3313H32.2778C32.0652 12.9651 31.8804 12.8866 31.7233 12.7295C31.5662 12.5723 31.4876 12.3875 31.4876 12.175V9.12525C31.4876 8.91269 31.5662 8.73248 31.7233 8.58462C31.8804 8.42751 32.0652 8.34896 32.2778 8.34896H40.6783C40.8909 8.34896 41.0757 8.42751 41.2328 8.58462C41.3899 8.73248 41.4685 8.91269 41.4685 9.12525V12.175C41.4685 12.3875 41.3899 12.5723 41.2328 12.7295C41.0757 12.8866 40.8909 12.9651 40.6783 12.9651H37.6841C37.6009 12.9651 37.5593 13.0067 37.5593 13.0899V15.4326C37.5593 15.8115 37.5501 16.1119 37.5316 16.3337C37.5223 16.5462 37.4854 16.7449 37.4207 16.9297C37.3652 17.1238 37.2959 17.2624 37.2127 17.3456C37.1388 17.438 37.0094 17.5119 36.8246 17.5674C36.649 17.6321 36.4549 17.6691 36.2424 17.6783C36.0391 17.6968 35.7572 17.706 35.3968 17.706C35.138 17.706 34.7406 17.6922 34.2046 17.6644ZM33.4561 11.6066H39.5C39.5832 11.6066 39.6248 11.565 39.6248 11.4818V9.8045C39.6248 9.72133 39.5832 9.67974 39.5 9.67974H33.4561C33.3729 9.67974 33.3313 9.72133 33.3313 9.8045V11.4818C33.3313 11.565 33.3729 11.6066 33.4561 11.6066ZM56.2734 5.36856C56.3196 5.46098 56.3843 5.59498 56.4675 5.77057C56.5599 5.94616 56.6246 6.07092 56.6616 6.14485C56.754 6.32968 56.7678 6.51451 56.7032 6.69934C56.6385 6.88417 56.5137 7.0228 56.3289 7.11521C56.144 7.20763 55.9546 7.22149 55.7605 7.1568C55.5757 7.09211 55.4324 6.96735 55.3308 6.78252C55.2476 6.61617 55.1136 6.36665 54.9288 6.03395C54.8364 5.84912 54.8179 5.66429 54.8733 5.47946C54.938 5.28539 55.0628 5.14214 55.2476 5.04973C55.4324 4.95731 55.6265 4.94345 55.8298 5.00814C56.0331 5.07283 56.181 5.19297 56.2734 5.36856ZM46.0015 7.11521C46.0015 6.90266 46.0754 6.72245 46.2232 6.57458C46.3804 6.41748 46.5652 6.33892 46.7777 6.33892H52.794C52.8217 6.33892 52.8402 6.32506 52.8494 6.29734C52.8679 6.26961 52.8679 6.24651 52.8494 6.22802V6.21416C52.757 6.03857 52.7385 5.85836 52.794 5.67353C52.8587 5.47946 52.9788 5.33622 53.1544 5.2438C53.3392 5.15139 53.5241 5.13752 53.7089 5.20221C53.903 5.2669 54.0508 5.39167 54.1525 5.5765C54.1987 5.65967 54.2634 5.78443 54.3466 5.95078C54.4297 6.10788 54.4944 6.22802 54.5406 6.3112C54.6331 6.49603 54.6469 6.68086 54.5822 6.86569C54.5175 7.05052 54.3928 7.18452 54.2079 7.2677C54.134 7.30466 54.0786 7.32777 54.0416 7.33701C53.9584 7.35549 53.9122 7.39246 53.903 7.44791C53.8568 7.60501 53.7643 7.73902 53.6257 7.84992C53.4871 7.95157 53.33 8.0024 53.1544 8.0024H46.7777C46.5652 8.0024 46.3804 7.92385 46.2232 7.76674C46.0754 7.60964 46.0015 7.4248 46.0015 7.21225V7.11521ZM56.3012 10.9551C56.3012 11.1676 56.2226 11.3525 56.0655 11.5096C55.9084 11.6667 55.7236 11.7452 55.511 11.7452H51.8929C51.8098 11.7452 51.7682 11.7822 51.7682 11.8561C51.7497 13.2886 51.4031 14.4438 50.7285 15.3217C50.0539 16.1904 49.0142 16.8281 47.6095 17.2347C47.3969 17.2994 47.1936 17.2763 46.9995 17.1654C46.8055 17.0545 46.6715 16.8928 46.5975 16.6802L46.5421 16.5139C46.4774 16.3105 46.4959 16.1165 46.5975 15.9316C46.6992 15.7468 46.8517 15.6221 47.055 15.5574C48.0346 15.2432 48.7369 14.7996 49.1621 14.2266C49.5872 13.6444 49.809 12.8496 49.8275 11.8423C49.8275 11.7776 49.7905 11.7452 49.7166 11.7452H45.1697C44.9572 11.7452 44.7723 11.6667 44.6152 11.5096C44.4581 11.3525 44.3796 11.1676 44.3796 10.9551V10.858C44.3796 10.6455 44.4581 10.4653 44.6152 10.3174C44.7723 10.1603 44.9572 10.0817 45.1697 10.0817H55.511C55.7236 10.0817 55.9084 10.1603 56.0655 10.3174C56.2226 10.4653 56.3012 10.6455 56.3012 10.858V10.9551ZM58.6855 11.8838L58.6577 11.7314C58.6208 11.528 58.6624 11.3386 58.7825 11.163C58.9119 10.9874 59.0829 10.8765 59.2954 10.8303C60.9866 10.5161 62.6224 9.98933 64.2027 9.25001C65.7922 8.50144 67.1646 7.60964 68.3198 6.57458C68.4769 6.42672 68.6617 6.35741 68.8743 6.36665C69.0868 6.37589 69.2624 6.45906 69.401 6.61617L69.5119 6.74093C69.6598 6.90728 69.7245 7.10135 69.706 7.32315C69.6968 7.54494 69.609 7.72978 69.4426 7.87764C68.4723 8.7371 67.3587 9.51339 66.1018 10.2065C66.0371 10.2435 66.0048 10.2989 66.0048 10.3729C66.0048 10.3821 66.0048 10.396 66.0048 10.4144C66.014 10.4237 66.0186 10.4329 66.0186 10.4422V16.403C66.0186 16.6155 65.9401 16.8004 65.783 16.9575C65.6259 17.1146 65.441 17.1931 65.2285 17.1931H64.8126C64.6001 17.1931 64.4152 17.1146 64.2581 16.9575C64.101 16.8004 64.0225 16.6155 64.0225 16.403V11.3155C64.0225 11.2508 63.9901 11.2277 63.9254 11.2462C62.5484 11.8192 61.1021 12.2489 59.5865 12.5354C59.374 12.5723 59.1799 12.5261 59.0043 12.3968C58.8287 12.2674 58.7224 12.0964 58.6855 11.8838ZM75.0569 17.2347C74.8443 17.2347 74.6595 17.1561 74.5024 16.999C74.3545 16.8512 74.2806 16.671 74.2806 16.4584V6.56072C74.2806 6.34817 74.3545 6.16795 74.5024 6.02009C74.6595 5.86298 74.8443 5.78443 75.0569 5.78443H75.4311C75.6437 5.78443 75.8285 5.86298 75.9856 6.02009C76.1427 6.16795 76.2213 6.34817 76.2213 6.56072V9.55498C76.2213 9.63815 76.2536 9.68436 76.3183 9.6936C78.5178 10.2296 80.7543 10.8996 83.0277 11.7036C83.231 11.7776 83.3789 11.9116 83.4713 12.1056C83.5729 12.2997 83.5868 12.503 83.5129 12.7156L83.4297 12.979C83.3558 13.1823 83.2218 13.3302 83.0277 13.4226C82.8429 13.515 82.6488 13.5288 82.4455 13.4642C80.2552 12.6971 78.2128 12.0733 76.3183 11.5927C76.2906 11.5835 76.2675 11.5927 76.249 11.6205C76.2305 11.6389 76.2213 11.6621 76.2213 11.6898V16.4584C76.2213 16.671 76.1427 16.8512 75.9856 16.999C75.8285 17.1561 75.6437 17.2347 75.4311 17.2347H75.0569ZM87.1725 11.468C86.96 11.468 86.7751 11.3894 86.618 11.2323C86.4609 11.0752 86.3824 10.8904 86.3824 10.6778V10.5808C86.3824 10.3682 86.4609 10.188 86.618 10.0402C86.7751 9.88306 86.96 9.8045 87.1725 9.8045H96.5296C96.7421 9.8045 96.927 9.88306 97.0841 10.0402C97.2412 10.188 97.3151 10.3682 97.3059 10.5808C97.2135 12.5492 96.5157 14.0787 95.2127 15.1692C93.9188 16.2505 91.9781 16.9066 89.3905 17.1377C89.1687 17.1561 88.97 17.0961 88.7944 16.9575C88.6188 16.8188 88.5125 16.6386 88.4756 16.4168L88.4479 16.3059C88.4109 16.1026 88.4571 15.9178 88.5865 15.7514C88.7251 15.5851 88.9007 15.4927 89.1132 15.4742C90.8599 15.3171 92.2461 14.9289 93.2719 14.3098C94.307 13.6813 94.9678 12.771 95.2543 11.5789C95.2727 11.5049 95.245 11.468 95.1711 11.468H87.1725ZM88.1845 6.2003H95.6701C95.8827 6.2003 96.0675 6.27885 96.2246 6.43596C96.3817 6.58382 96.4603 6.76403 96.4603 6.97659V7.07363C96.4603 7.28618 96.3817 7.47101 96.2246 7.62812C96.0675 7.78522 95.8827 7.86378 95.6701 7.86378H88.1845C87.9719 7.86378 87.7871 7.78522 87.63 7.62812C87.4729 7.47101 87.3943 7.28618 87.3943 7.07363V6.97659C87.3943 6.76403 87.4729 6.58382 87.63 6.43596C87.7871 6.27885 87.9719 6.2003 88.1845 6.2003ZM100.037 11.468L99.8565 11.2878C99.7087 11.1307 99.6394 10.9505 99.6486 10.7471C99.6579 10.5346 99.741 10.3498 99.8981 10.1926C101.035 9.08366 102.005 7.80833 102.809 6.36665C102.92 6.17258 103.077 6.03395 103.281 5.95078C103.493 5.85836 103.706 5.84912 103.918 5.92305L104.112 5.99237C104.316 6.0663 104.454 6.2003 104.528 6.39437C104.611 6.5792 104.607 6.76403 104.514 6.94887C103.655 8.62158 102.532 10.1372 101.146 11.4957C100.989 11.6436 100.804 11.7175 100.591 11.7175C100.379 11.7083 100.194 11.6251 100.037 11.468ZM108.798 6.35279C109.583 7.77598 110.558 9.05594 111.723 10.1926C111.88 10.3498 111.958 10.5346 111.958 10.7471C111.968 10.9505 111.898 11.1307 111.75 11.2878L111.57 11.468C111.422 11.6251 111.238 11.7083 111.016 11.7175C110.794 11.7175 110.604 11.6389 110.447 11.4818C109.061 10.1326 107.943 8.62158 107.093 6.94887C107 6.76403 106.991 6.5792 107.065 6.39437C107.148 6.2003 107.291 6.0663 107.495 5.99237L107.689 5.92305C107.901 5.84912 108.109 5.85374 108.313 5.93692C108.525 6.02009 108.687 6.15871 108.798 6.35279ZM104.001 10.1649C104.066 9.96161 104.191 9.80912 104.376 9.70747C104.57 9.59657 104.773 9.57346 104.986 9.63815L105.277 9.72133C105.48 9.78602 105.633 9.9154 105.734 10.1095C105.845 10.3035 105.868 10.5069 105.803 10.7194C105.332 12.235 104.768 13.8015 104.112 15.4187C104.103 15.4465 104.103 15.4742 104.112 15.5019C104.131 15.5296 104.154 15.5435 104.182 15.5435C105.734 15.4326 107.301 15.294 108.881 15.1276C108.909 15.1276 108.927 15.1184 108.936 15.0999C108.955 15.0722 108.959 15.0491 108.95 15.0306C108.59 14.356 108.239 13.7368 107.897 13.173C107.795 12.9882 107.777 12.8034 107.841 12.6186C107.906 12.4245 108.035 12.2859 108.229 12.2027L108.396 12.1334C108.608 12.041 108.816 12.0317 109.02 12.1056C109.232 12.1796 109.398 12.3136 109.519 12.5077C110.387 13.9863 111.122 15.2986 111.723 16.4446C111.815 16.6294 111.824 16.8188 111.75 17.0129C111.676 17.2162 111.542 17.3595 111.348 17.4426L111.182 17.5119C110.979 17.5951 110.771 17.5997 110.558 17.5258C110.346 17.4519 110.189 17.3133 110.087 17.1099C110.059 17.0545 110.018 16.9806 109.962 16.8881C109.916 16.7957 109.879 16.7218 109.851 16.6663C109.814 16.5924 109.759 16.5647 109.685 16.5832C106.691 16.9528 103.733 17.1931 100.813 17.304C100.591 17.3133 100.402 17.2393 100.245 17.0822C100.088 16.9344 99.9998 16.7541 99.9813 16.5416C99.9628 16.329 100.023 16.1442 100.162 15.9871C100.309 15.83 100.49 15.7468 100.702 15.7376C100.822 15.7376 101.012 15.733 101.271 15.7237C101.529 15.7052 101.723 15.6914 101.853 15.6821C101.936 15.6821 101.996 15.6405 102.033 15.5574C102.708 14.014 103.364 12.2165 104.001 10.1649ZM114.273 17.8585C114.061 17.8585 113.876 17.78 113.719 17.6228C113.562 17.475 113.483 17.2948 113.483 17.0822V6.17258C113.483 5.96002 113.562 5.77519 113.719 5.61808C113.876 5.46098 114.061 5.38242 114.273 5.38242H125.031C125.243 5.38242 125.428 5.46098 125.585 5.61808C125.742 5.77519 125.821 5.96002 125.821 6.17258V17.0822C125.821 17.2948 125.742 17.475 125.585 17.6228C125.428 17.78 125.243 17.8585 125.031 17.8585H124.518C124.388 17.8585 124.277 17.8123 124.185 17.7199C124.092 17.6275 124.046 17.5166 124.046 17.3872C124.046 17.3317 124.019 17.304 123.963 17.304H115.341C115.285 17.304 115.258 17.3317 115.258 17.3872C115.258 17.5166 115.211 17.6275 115.119 17.7199C115.027 17.8123 114.916 17.8585 114.786 17.8585H114.273ZM115.258 6.90728V15.8346C115.258 15.9085 115.299 15.9455 115.382 15.9455H123.922C124.005 15.9455 124.046 15.9085 124.046 15.8346V6.90728C124.046 6.83335 124.005 6.79638 123.922 6.79638H115.382C115.299 6.79638 115.258 6.83335 115.258 6.90728ZM116.297 10.0817C116.149 10.0817 116.025 10.0309 115.923 9.92926C115.821 9.82761 115.77 9.70284 115.77 9.55498C115.77 9.40712 115.821 9.28235 115.923 9.1807C116.025 9.0698 116.149 9.01435 116.297 9.01435H118.654C118.737 9.01435 118.779 8.97738 118.779 8.90345V8.64007C118.779 8.56613 118.737 8.52917 118.654 8.52917H116.644C116.505 8.52917 116.385 8.48296 116.283 8.39055C116.191 8.28889 116.145 8.16875 116.145 8.03013C116.145 7.8915 116.191 7.77136 116.283 7.66971C116.385 7.56805 116.505 7.51722 116.644 7.51722H118.709C118.755 7.51722 118.779 7.49412 118.779 7.44791C118.779 7.32777 118.82 7.22611 118.903 7.14294C118.996 7.05052 119.102 7.00431 119.222 7.00431H120.082C120.202 7.00431 120.303 7.05052 120.387 7.14294C120.479 7.22611 120.525 7.32777 120.525 7.44791C120.525 7.49412 120.548 7.51722 120.595 7.51722H122.66C122.799 7.51722 122.914 7.56805 123.007 7.66971C123.108 7.77136 123.159 7.8915 123.159 8.03013C123.159 8.16875 123.108 8.28889 123.007 8.39055C122.914 8.48296 122.799 8.52917 122.66 8.52917H120.65C120.567 8.52917 120.525 8.56613 120.525 8.64007V8.90345C120.525 8.97738 120.567 9.01435 120.65 9.01435H123.007C123.154 9.01435 123.279 9.0698 123.381 9.1807C123.483 9.28235 123.533 9.40712 123.533 9.55498C123.533 9.70284 123.483 9.82761 123.381 9.92926C123.279 10.0309 123.154 10.0817 123.007 10.0817H116.297ZM116.796 15.4603C116.611 15.5343 116.427 15.5389 116.242 15.4742C116.057 15.4095 115.914 15.2894 115.812 15.1138C115.72 14.9567 115.706 14.7996 115.77 14.6424C115.835 14.4761 115.951 14.3606 116.117 14.2959C117.087 13.9447 117.961 13.5519 118.737 13.1176C118.746 13.1084 118.751 13.0991 118.751 13.0899C118.751 13.0714 118.742 13.0621 118.723 13.0621H118.03H117.198C116.986 13.0621 116.801 12.9836 116.644 12.8265C116.496 12.6694 116.422 12.4845 116.422 12.272V11.2323C116.422 11.0198 116.496 10.8396 116.644 10.6917C116.801 10.5346 116.986 10.456 117.198 10.456H122.106C122.318 10.456 122.498 10.5346 122.646 10.6917C122.803 10.8396 122.882 11.0198 122.882 11.2323V12.3968C122.882 12.4799 122.914 12.5446 122.979 12.5908L123.187 12.7433C123.353 12.8727 123.446 13.0483 123.464 13.2701C123.492 13.4826 123.432 13.6675 123.284 13.8246C123.247 13.8708 123.187 13.9401 123.104 14.0325C123.02 14.1157 122.956 14.1804 122.91 14.2266C122.854 14.282 122.859 14.3282 122.923 14.3652C122.96 14.3837 123.02 14.4207 123.104 14.4761C123.187 14.5316 123.252 14.5685 123.298 14.587C123.446 14.6702 123.529 14.7949 123.547 14.9613C123.566 15.1276 123.52 15.2709 123.409 15.391C123.288 15.5296 123.131 15.6082 122.937 15.6267C122.752 15.6452 122.581 15.6036 122.424 15.5019C121.805 15.1045 121.205 14.7349 120.622 14.3929C120.604 14.3744 120.581 14.3744 120.553 14.3929C120.525 14.4114 120.511 14.4345 120.511 14.4622V14.7395C120.511 14.952 120.433 15.1369 120.276 15.294C120.128 15.4511 119.948 15.5296 119.735 15.5296H119.596C119.384 15.5296 119.199 15.4511 119.042 15.294C118.885 15.1369 118.806 14.952 118.806 14.7395V14.6009C118.806 14.5731 118.792 14.5547 118.765 14.5454C118.746 14.5269 118.728 14.5223 118.709 14.5316C118.09 14.8735 117.452 15.1831 116.796 15.4603ZM122.286 13.0621H121.01C120.937 13.0621 120.876 13.0806 120.83 13.1176C120.775 13.1546 120.775 13.1915 120.83 13.2285C121.015 13.3209 121.292 13.4688 121.662 13.6721C121.727 13.7091 121.791 13.6952 121.856 13.6305C121.967 13.5288 122.124 13.3671 122.327 13.1453C122.346 13.1084 122.332 13.0806 122.286 13.0621ZM118.155 12.0918H121.149C121.232 12.0918 121.274 12.0548 121.274 11.9809V11.5373C121.274 11.4541 121.232 11.4125 121.149 11.4125H118.155C118.072 11.4125 118.03 11.4541 118.03 11.5373V11.9809C118.03 12.0548 118.072 12.0918 118.155 12.0918Z" fill="#9FB918"/>
</svg>
