<svg width="29" height="30" viewBox="0 0 29 30" fill="none" xmlns="http://www.w3.org/2000/svg">
<path d="M11.4348 22.5615C11.0898 22.5615 10.8096 22.8667 10.8096 23.244C10.8096 23.6211 11.0899 23.9268 11.4348 23.9268C11.7801 23.9268 12.06 23.6211 12.06 23.244C12.06 22.8667 11.7801 22.5615 11.4348 22.5615Z" fill="white"/>
<path d="M11.4348 20.0103C11.0898 20.0103 10.8096 20.3159 10.8096 20.6931C10.8096 21.0698 11.0899 21.3755 11.4348 21.3755C11.7801 21.3755 12.06 21.0698 12.06 20.6931C12.06 20.3158 11.7801 20.0103 11.4348 20.0103Z" fill="white"/>
<path d="M27.8631 11.7998H12.0593H11.9447H10.8088H6.40828H5.27246V13.0399V25.7948V27.0353H6.40833H10.8088H11.9447H12.0593H27.8631H28.999V25.7948V13.0399V11.7998H27.8631ZM27.8631 25.7948H12.0593C12.0593 25.4176 11.7794 25.1123 11.434 25.1123C11.0891 25.1123 10.8088 25.4175 10.8088 25.7948H6.40833V13.0399H10.8088C10.8088 13.4171 11.0891 13.7223 11.434 13.7223C11.7794 13.7223 12.0593 13.4171 12.0593 13.0399H27.8631L27.8631 25.7948Z" fill="white"/>
<path d="M11.4348 17.4592C11.0898 17.4592 10.8096 17.7649 10.8096 18.142C10.8096 18.5188 11.0899 18.8245 11.4348 18.8245C11.7801 18.8245 12.06 18.5188 12.06 18.142C12.06 17.7649 11.7801 17.4592 11.4348 17.4592Z" fill="white"/>
<path d="M11.4348 14.9084C11.0898 14.9084 10.8096 15.2137 10.8096 15.5909C10.8096 15.9681 11.0899 16.2737 11.4348 16.2737C11.7801 16.2737 12.06 15.9681 12.06 15.5909C12.06 15.2137 11.7801 14.9084 11.4348 14.9084Z" fill="white"/>
<path d="M7.23859 9.91351L21.1298 1.68172L25.541 10.5592H26.8328L22.1279 1.08955L21.5865 0L20.5877 0.590841L6.69765 8.82354L6.59695 8.88293L5.59855 9.4742L1.73082 11.7668L0.732422 12.3585L1.27419 13.4489L4.13733 19.2112V16.6102L2.27264 12.8572L4.13733 11.7516L7.23859 9.91351Z" fill="white"/>
</svg>
